<?xml version="1.0" standalone="no"?>
<!DOCTYPE svg PUBLIC "-//W3C//DTD SVG 20010904//EN"
 "http://www.w3.org/TR/2001/REC-SVG-20010904/DTD/svg10.dtd">
<svg version="1.0" xmlns="http://www.w3.org/2000/svg"
 width="360.000000pt" height="360.000000pt" viewBox="0 0 360.000000 360.000000"
 preserveAspectRatio="xMidYMid meet">

<g transform="translate(0.000000,360.000000) scale(0.100000,-0.100000)"
fill="#000000" stroke="none">
<path d="M1830 3250 c-27 -27 -26 -75 3 -104 18 -18 38 -24 100 -29 221 -19
182 -100 -48 -99 -145 0 -230 22 -285 74 -35 32 -85 33 -110 0 -18 -23 -20
-41 -20 -227 l0 -202 30 -26 c36 -32 44 -33 81 -6 29 20 29 21 29 124 0 57 3
110 6 119 6 16 54 22 67 10 16 -16 296 -19 360 -4 75 18 79 14 76 -88 -3 -104
12 -153 52 -171 24 -10 32 -10 54 5 14 9 30 25 35 35 6 10 10 103 10 208 l0
190 -30 60 c-28 54 -36 61 -104 95 -90 44 -99 47 -204 52 -72 3 -84 2 -102
-16z"/>
<path d="M952 3164 c-7 -3 -19 -19 -28 -35 -14 -28 -14 -33 3 -67 l18 -37 80
-6 c44 -3 97 -11 117 -18 39 -13 57 -39 36 -53 -20 -12 -80 -27 -113 -28 -17
0 -48 -1 -70 -2 -42 -1 -123 6 -165 15 -40 8 -63 18 -100 46 -60 45 -79 52
-103 39 -43 -22 -47 -39 -52 -243 -6 -211 -4 -222 47 -251 41 -24 112 -55 158
-70 25 -9 52 -18 60 -21 52 -19 338 -19 357 1 3 3 17 6 29 6 13 0 26 5 29 10
3 6 13 10 21 10 8 0 39 16 69 35 49 31 55 38 55 69 0 28 -7 40 -35 62 l-35 26
-53 -25 c-98 -49 -99 -49 -273 -50 -84 -1 -151 3 -165 9 -13 6 -41 18 -61 27
-40 17 -43 25 -52 113 -6 69 2 81 51 66 65 -19 105 -24 208 -24 155 0 254 26
330 87 60 48 70 72 52 125 -13 40 -99 140 -119 140 -5 0 -28 9 -51 20 -30 15
-69 22 -137 25 -52 2 -101 1 -108 -1z"/>
<path d="M368 2761 c-42 -9 -80 -19 -84 -23 -4 -5 -20 -8 -35 -8 -15 0 -30 -4
-33 -8 -3 -5 -19 -9 -36 -10 -17 0 -46 -10 -65 -22 l-35 -22 0 -479 0 -479 49
-48 c27 -26 58 -53 68 -61 10 -8 41 -35 68 -60 28 -25 84 -75 125 -111 40 -36
99 -88 129 -116 31 -29 80 -74 110 -100 30 -27 62 -56 71 -64 10 -8 46 -40 81
-71 35 -31 84 -74 108 -95 24 -22 56 -50 71 -64 48 -45 163 -147 255 -227 49
-43 109 -97 132 -121 24 -23 45 -42 49 -42 3 0 30 -24 61 -52 47 -46 61 -54
104 -58 28 -3 53 -2 56 3 3 5 11 6 19 3 7 -3 16 -1 19 4 4 6 15 10 26 10 10 0
27 4 37 10 19 10 108 31 134 31 10 0 20 4 23 10 4 5 17 9 30 9 13 0 26 4 29 9
3 5 27 12 53 16 27 4 53 10 58 15 6 4 17 8 25 8 28 2 115 23 137 34 11 6 26 8
31 4 6 -3 13 -2 17 4 3 5 17 10 30 10 13 0 27 5 30 10 4 6 15 8 25 5 10 -3 21
-1 25 5 3 5 17 10 30 10 13 0 26 4 29 9 3 5 27 12 53 16 27 4 53 11 58 15 6 4
35 13 65 19 158 32 210 59 210 113 0 37 -43 78 -81 78 -15 0 -30 -4 -33 -9 -3
-5 -27 -12 -53 -16 -27 -4 -52 -10 -58 -14 -12 -9 -84 -30 -123 -36 -54 -9
-87 -18 -97 -25 -5 -5 -39 -14 -75 -20 -36 -6 -69 -15 -75 -19 -5 -4 -43 -14
-83 -21 -40 -7 -75 -17 -78 -22 -3 -4 -14 -8 -25 -8 -10 0 -27 -4 -37 -10 -15
-8 -88 -27 -132 -34 -9 -1 -20 -5 -25 -8 -6 -3 -30 -9 -55 -13 -25 -4 -49 -11
-55 -15 -5 -4 -27 -10 -47 -14 -33 -6 -38 -4 -43 16 -3 13 -4 205 -2 428 l2
405 30 14 c17 8 41 16 55 19 14 2 32 5 40 6 8 1 25 8 37 14 12 7 29 9 37 6 9
-4 22 -2 29 4 6 5 35 13 62 17 28 4 56 11 62 17 7 6 20 7 29 4 9 -4 23 -1 30
5 7 6 35 13 61 16 26 2 52 9 57 14 6 5 21 9 34 9 13 0 32 4 42 10 10 5 38 11
63 13 25 1 49 6 53 10 4 4 18 7 30 7 13 0 25 4 29 10 3 5 18 9 33 9 15 -1 45
4 67 11 45 13 56 15 142 33 34 6 65 15 69 20 4 4 20 7 35 7 15 0 31 4 34 10 3
5 16 10 28 9 23 0 130 23 157 33 25 10 124 30 150 30 14 0 28 4 31 10 4 5 19
11 35 13 16 2 40 6 54 9 89 19 110 23 115 18 3 -3 5 -182 5 -397 0 -367 -1
-393 -18 -408 -10 -10 -29 -17 -43 -17 -26 -1 -108 -21 -124 -31 -5 -4 -30
-10 -55 -14 -25 -4 -51 -12 -57 -17 -7 -6 -19 -8 -26 -5 -17 6 -46 -16 -63
-49 -13 -24 -13 -32 0 -59 19 -39 61 -64 78 -47 7 7 22 12 34 12 13 0 25 4 28
9 4 5 29 12 56 16 27 4 53 11 56 16 3 6 14 7 24 4 10 -3 21 -2 24 4 3 5 29 12
56 16 27 4 52 11 56 16 3 5 14 9 25 9 10 0 29 5 42 12 12 6 29 14 37 18 13 6
15 77 17 531 l2 524 -45 35 c-26 19 -56 43 -68 52 -97 79 -155 118 -175 118
-31 0 -81 -47 -81 -74 1 -25 23 -53 68 -85 55 -39 34 -61 -74 -75 -11 -1 -24
-5 -30 -8 -5 -3 -35 -9 -67 -13 -31 -4 -60 -11 -63 -16 -3 -5 -18 -9 -35 -9
-16 0 -29 -4 -29 -10 0 -5 -10 -10 -22 -10 -33 0 -141 -21 -160 -31 -10 -5
-28 -9 -41 -9 -13 0 -27 -3 -31 -7 -4 -5 -20 -9 -34 -11 -60 -5 -71 -7 -78
-14 -4 -5 -20 -8 -35 -8 -15 0 -31 -5 -34 -10 -4 -6 -14 -10 -23 -9 -21 3 -71
-9 -94 -21 -10 -6 -24 -7 -33 -4 -8 4 -21 2 -28 -4 -6 -5 -36 -13 -64 -17 -29
-4 -55 -11 -59 -16 -3 -5 -18 -9 -34 -9 -16 0 -32 -5 -35 -10 -4 -6 -14 -9
-23 -6 -16 5 -47 -1 -129 -25 -21 -6 -47 -12 -58 -14 -11 -1 -27 -5 -35 -8
-13 -5 -28 -8 -90 -21 -8 -2 -22 -6 -30 -9 -17 -6 -88 -21 -107 -22 -6 0 -15
-4 -19 -8 -13 -12 -63 -8 -71 7 -7 13 -63 59 -111 91 -8 6 -26 21 -41 33 -14
13 -75 62 -136 108 -60 47 -126 98 -145 114 -65 55 -163 130 -169 130 -3 0
-22 15 -41 33 -40 37 -81 71 -130 107 -19 14 -44 34 -55 46 -11 12 -30 26 -42
33 -12 6 -65 46 -117 89 -52 42 -124 100 -161 127 -36 28 -64 56 -63 64 2 8
19 16 41 18 22 2 50 11 63 20 13 8 24 12 24 9 0 -4 14 0 30 9 60 31 33 137
-34 134 -11 -1 -56 -9 -98 -18z m-93 -326 c38 -29 88 -70 110 -92 12 -13 27
-23 33 -23 6 0 19 -11 30 -25 11 -14 24 -25 29 -25 5 0 23 -12 40 -27 18 -16
51 -41 74 -58 23 -16 53 -42 67 -57 15 -16 32 -28 39 -28 6 0 20 -11 31 -25
11 -14 24 -25 29 -25 6 0 22 -10 36 -22 33 -30 84 -71 122 -100 57 -44 69 -53
90 -75 12 -13 26 -23 30 -23 7 0 68 -50 110 -90 12 -11 25 -20 31 -20 5 0 24
-12 41 -27 43 -39 90 -78 143 -119 25 -19 55 -44 66 -54 12 -11 25 -20 29 -20
4 0 14 -8 21 -17 11 -14 13 -100 14 -410 0 -360 -1 -393 -17 -393 -9 0 -23 6
-32 14 -52 46 -152 138 -199 183 -30 29 -58 53 -61 53 -3 0 -35 28 -71 62 -36
34 -75 69 -87 78 -12 9 -46 38 -76 65 -29 28 -85 77 -122 110 -38 33 -93 83
-122 112 -28 28 -59 56 -69 61 -20 11 -135 115 -216 195 -32 31 -61 57 -65 57
-5 0 -26 18 -48 41 -22 22 -48 48 -57 57 -16 15 -18 45 -18 343 0 179 3 329 7
332 9 10 15 8 38 -8z"/>
<path d="M2622 2711 c-34 -31 -40 -58 -20 -94 20 -38 40 -47 103 -45 61 1 92
-4 133 -24 27 -14 30 -48 4 -48 -10 0 -23 -5 -30 -12 -11 -11 -212 -16 -277
-6 -50 7 -108 33 -148 65 -35 28 -98 31 -118 6 -11 -12 -14 -62 -14 -224 0
-195 1 -210 20 -227 21 -21 130 -82 145 -82 5 0 21 -5 37 -12 15 -6 37 -13 48
-14 11 -1 52 -8 90 -15 86 -15 110 -15 205 -1 123 20 234 65 268 112 23 30 23
32 6 58 -38 59 -64 64 -139 28 -69 -34 -87 -39 -112 -37 -11 1 -24 -3 -28 -8
-7 -12 -187 -15 -199 -4 -4 4 -33 13 -64 19 -31 6 -74 22 -94 34 l-38 22 0 73
c0 79 8 94 43 77 34 -16 72 -23 159 -27 175 -9 327 30 408 105 38 35 41 41 36
80 -12 99 -128 193 -251 205 -16 1 -43 8 -58 14 -47 18 -80 13 -115 -18z"/>
<path d="M1848 2634 c-3 -2 -27 -5 -54 -6 -61 -1 -78 -9 -94 -47 -11 -26 -9
-34 9 -60 25 -34 40 -41 113 -46 95 -7 156 -31 145 -58 -13 -34 -216 -52 -338
-29 -62 11 -87 22 -138 60 -42 31 -88 31 -113 1 -16 -19 -18 -46 -18 -223 l0
-202 28 -26 c32 -29 152 -88 181 -88 11 0 22 -4 25 -9 19 -30 340 -31 411 -1
11 4 42 16 68 25 92 33 122 75 97 139 -8 23 -15 26 -55 26 -25 0 -53 -4 -63
-9 -23 -13 -55 -25 -67 -26 -5 0 -16 -4 -23 -9 -37 -23 -304 -27 -317 -5 -4 5
-17 9 -31 9 -13 0 -24 5 -24 10 0 6 -6 10 -13 10 -7 0 -25 6 -40 13 -27 12
-27 14 -25 87 l3 75 30 -2 c128 -11 352 -17 360 -11 5 4 18 8 30 8 11 0 33 7
49 15 15 8 36 15 46 15 10 0 20 3 22 8 2 4 22 20 45 35 73 50 75 121 7 197
-49 54 -151 109 -187 102 -4 -1 -20 4 -36 13 -16 8 -31 12 -33 9z"/>
</g>
</svg>
